<svg xmlns="http://www.w3.org/2000/svg" viewBox="0 0 448 512" fill="#5e2c1c">
  <path d="M224,202.66A53.34,53.34,0,1,0,277.34,256,53.38,53.38,0,0,0,224,202.66ZM398.8,97.2A54.21,54.21,0,0,0,350.8,49.2C318.5,48,256,48,224,48s-94.5,0-126.8,1.2a54.21,54.21,0,0,0-48,48C48,94.5,48,157,48,189s0,94.5,1.2,126.8a54.21,54.21,0,0,0,48,48C129.5,368,192,368,224,368s94.5,0,126.8-1.2a54.21,54.21,0,0,0,48-48C400,283.5,400,221,400,189S400,94.5,398.8,97.2ZM224,338A82,82,0,1,1,306,256,82.09,82.09,0,0,1,224,338Zm85.3-148.7a19.2,19.2,0,1,1,19.2-19.2A19.2,19.2,0,0,1,309.3,189.3Z"/>
</svg>